<svg version="1.2" xmlns="http://www.w3.org/2000/svg" viewBox="0 0 1250 189" width="1250" height="189">
	<style>
		.s0 { fill: #13070a } 
	</style>
	<path fill-rule="evenodd" class="s0" d="m146.5 0c0.3 0 2.2 1.5 4.3 3.3 2 1.8 4.4 3.8 5.2 4.5 0.8 0.6 2.4 2 3.5 3 1.1 0.9 3 2.6 4.3 3.7 1.2 1 2.6 2.2 3.1 2.6 0.4 0.4 2 1.8 3.5 3.1 1.4 1.4 3.2 3 3.8 3.6 0.7 0.6 2.2 1.9 3.4 2.9 1.2 1 2.5 2.1 2.9 2.5 0.5 0.4 1.5 1.2 2.3 1.9 0.8 0.7 1.6 1.3 1.6 1.4 0.1 0 0.6 0.4 1.1 0.9 0.5 0.4 1.7 1.4 2.7 2.3 0.9 0.8 2.3 2 3 2.6 0.7 0.5 3.2 2.7 5.7 4.8 2.5 2.2 4.6 4 4.7 4.2 0.1 0.2 0.1 32.1 0 141.7h-41.2c-22.6 0-41.3-0.1-41.5-0.1-0.4-0.2-0.4-5-0.2-42.3 0.1-33.6 0.1-42-0.2-42-0.1 0-1.3 0.9-2.5 2-1.2 1.2-6.1 6-10.9 10.8-4.8 4.8-10.8 10.8-13.4 13.3-4.2 4.2-4.6 4.5-5 4.2-0.3-0.3-1.9-2.2-3.7-4.3-1.8-2.2-3.5-4.2-3.8-4.6-0.3-0.4-2.4-2.9-4.7-5.6-2.3-2.8-4.6-5.6-5.2-6.3-0.6-0.8-1.1-1.4-1.2-1.5-0.1-0.1-0.9-1-1.8-2.1-0.8-1.1-1.7-2.2-1.8-2.3-0.2-0.2-0.8-0.9-1.4-1.6-0.6-0.8-1.1-1.4-1.2-1.5-0.1-0.1-0.9-1.2-1.9-2.4-1-1.3-2.8-3.6-4.1-5.1-1.3-1.6-2.8-3.4-3.4-4.2-0.7-0.7-1.6-1.7-3-3.3l-25.8 0.1v98.7l-23.7 0.1v-188.7h11.2c6.1 0 11.3 0.1 11.5 0.2 0.3 0.1 0.4 4.2 0.6 19 0.2 10.3 0.3 24.8 0.3 32.2 0 12.5 0 13.5 0.5 13.7 0.2 0.1 9.6 0.1 22.9 0 12.4-0.2 22.6-0.3 22.6-0.3 0.1-0.1 0.1-14.3 0.1-31.6 0-24.7 0.1-31.7 0.7-33.2h22.3l0.2 0.6c0.1 0.3 0.1 10.3 0.1 22.2 0 19 0.1 21.7 0.4 21.8 0.3 0.1 1.8-1 3.8-2.7 1.9-1.6 3.8-3.2 4.3-3.6 0.4-0.4 1.4-1.3 2.2-2 0.8-0.7 3-2.6 4.8-4.1 1.8-1.6 3.8-3.3 4.5-3.8 0.6-0.5 2.9-2.5 5.1-4.4 2.2-1.9 4.1-3.6 4.1-3.6 0.1-0.1 1.2-1.1 2.4-2.2 1.3-1.1 2.4-2.1 2.5-2.1 0-0.1 2-1.9 4.4-3.9 2.3-2.1 5.1-4.4 6-5.2 1-0.9 2.1-1.8 2.6-2.2 0.4-0.4 1.9-1.7 3.3-2.9 1.4-1.2 2.8-2.2 3.1-2.2zm-102.6 104c0.2 0 1 0.9 1.9 2 0.8 1 3 3.7 4.7 5.8 1.8 2.1 3.4 4.1 3.7 4.4 0.2 0.3 2 2.5 4 4.8 1.9 2.4 5 6.2 6.9 8.5 1.9 2.2 3.5 4.2 3.7 4.4 0.1 0.1 1.5 1.8 3 3.6 1.6 1.9 3.1 3.6 3.3 3.9 0.3 0.3 0.8 1 2 2.6l-2.3 2.3c-1.3 1.2-2.4 2.2-2.6 2.2-0.1 0-1.9-1.9-3.9-4.3-2-2.4-5.5-6.6-7.7-9.3-2.3-2.8-4.4-5.2-4.6-5.5-0.3-0.3-1.5-1.8-2.8-3.3-1.2-1.5-2.4-2.8-2.5-2.8-0.2 0-0.3 11.1-0.3 32.7 0 28.9-0.1 32.7-0.4 32.9-0.2 0-1.8 0.1-3.4 0.1-1.7 0-3.2-0.1-3.4-0.3-0.4-0.2-0.4-5-0.2-41.8 0.1-22.9 0.2-41.9 0.3-42.3 0.1-0.3 0.3-0.6 0.6-0.6zm32.7-96.2c0 0.2 0 3.1 0.1 6.4 0.1 3.3 0.3 17.8 0.4 32.3l0.2 26.2h-60.9l0.4-64.6c-1.1-0.3-3.3-0.3-5.5-0.3l-4.2 0.1c0.1 1.7 0.1 40.2 0.1 86.6 0.1 46.5 0.2 85.1 0.3 85.8l0.1 1.3c6.8 0.2 7.9 0.1 8.3-0.2 0.4-0.3 0.4-3.5 0.6-49.1 0.1-26.8 0.3-49 0.4-49.3 0.2-0.4 1.9-0.4 30-0.4h29.8c0.1 0.9 0.1 2.6 0 4.3v3.2c-13.3 0-17.2 0.1-17.3 0.2-0.1 0.1 0.2 0.7 0.7 1.3 0.5 0.6 1.5 1.8 2.3 2.8 0.8 0.9 1.7 2 1.9 2.3 0.2 0.2 0.9 1 1.4 1.7 0.5 0.7 1.3 1.7 1.8 2.2 0.6 0.6 1.2 1.3 1.4 1.6 0.2 0.4 0.4 0.7 0.5 0.8 0.1 0 1.7 1.9 3.4 4.1 1.8 2.2 4.9 6 6.8 8.3 2 2.4 4.5 5.4 5.5 6.8 1.1 1.4 2.1 2.5 2.2 2.5 0.1 0 3.4-3.1 7.2-6.9 3.8-3.8 12.4-12.3 19.1-18.9 6.7-6.6 12.2-11.9 12.2-11.7 0.1 0.2 0.2 9.6 0.3 20.8 0.1 11.3 0.2 31.5 0.2 44.9 0 13.5 0.1 25.4 0.2 26.6l0.2 2.1h8.3c0-95.7-0.1-115.4-0.3-115.7-0.2-0.1-0.4-0.2-0.7 0-0.3 0.1-4.2 3.8-8.7 8.3-4.6 4.4-12.9 12.7-18.6 18.3-5.7 5.7-12.6 12.5-15.4 15.1-4.1 3.9-5.1 4.8-5.3 4.5-0.2-0.3-0.2-18.5-0.2-52.1 0.1-34.2 0-51.7-0.2-51.9-0.1-0.1-2.2-0.3-4.5-0.4-3.5-0.2-4.4-0.1-4.5 0.1zm69.1 2.2c-0.5 0.3-1.8 1.4-3 2.5-1.1 1-3.9 3.4-6.1 5.3-2.2 1.9-5.2 4.5-6.6 5.8-1.4 1.3-4 3.6-5.7 5.1-1.8 1.6-4.2 3.7-5.4 4.7-1.2 1-2.8 2.4-3.6 3.1-0.8 0.6-1.9 1.6-2.4 2-0.6 0.5-1.7 1.4-2.6 2.1-0.9 0.8-2.4 2.1-3.5 2.9-1 0.9-2.1 1.8-2.4 2.1-0.3 0.2-2 1.7-3.9 3.2-1.8 1.5-4.1 3.4-4.9 4.1-0.9 0.8-1.9 1.6-2.1 1.9-0.4 0.5-0.5 2.1-0.5 20.6 0 11 0.1 20 0.2 20.1 0.1 0 0.4-0.3 0.6-0.5 0.3-0.3 2.8-2.7 5.5-5.3 2.8-2.6 9.6-9.3 15-14.8 5.5-5.4 11.8-11.6 14-13.7 2.2-2 4.6-4.3 5.4-5l1.4-1.2h7.2c0 97.7 0.1 126.2 0.2 126.4 0.2 0.3 1.1 0.3 3.5 0.3l3.2-0.1c0.1-6.9 0.2-7.5 0.6-7.8 0.3-0.3 1.7-0.4 4.7-0.4l4.2 0.1c0-12.1 0-12.4 0.5-12.6 0.3-0.2 1.1-0.3 1.8-0.3q1.3 0 1.6-0.4c0.3-0.3 0.3-0.8 0.2-1.4-0.1-0.6-0.2-4.4-0.4-8.5-0.1-5.6-0.1-7.6 0.1-7.9 0.3-0.2 3.1-0.4 11.1-0.5 9.2-0.2 10.7-0.1 10.9 0.2 0.2 0.2 0.4 4.9 0.6 10.4 0.2 5.6 0.4 12.3 0.4 15.1 0 3.8 0.1 5 0.4 5.5 0.3 0.4 0.7 0.5 4.5 0.5h4.1l0.1-122.8c-2.2-2.1-3.2-3-3.6-3.3-0.5-0.4-2.1-1.7-3.6-3-1.6-1.2-3-2.4-3.1-2.5-0.2-0.2-1.1-1-2-1.8-1-0.8-2.3-1.9-3-2.5-0.6-0.6-1.9-1.7-2.8-2.6-0.9-0.8-3-2.7-4.8-4.3-1.8-1.5-4.9-4.3-7-6-2-1.7-4.9-4.2-6.3-5.5-1.4-1.2-3.3-2.9-4.3-3.7-0.9-0.8-2.4-2.1-3.2-2.8-0.8-0.7-1.8-1.7-2.3-2-0.4-0.4-1-0.9-1.4-1.1-0.3-0.2-0.6-0.3-0.7-0.3 0 0-0.4 0.3-0.8 0.6zm26.9 136.5c0 0.2 1.5 1.8 3.2 3.4 1.8 1.7 3.5 3.2 3.9 3.4 0.4 0.3 0.8 0.4 0.9 0.2 0.1-0.1 0.2-1.7 0.3-3.5 0-2.3 0-3.3-0.3-3.6-0.2-0.2-1.4-0.3-4.2-0.3-3.2 0-3.8 0.1-3.8 0.4zm-5.7 4.2c-0.1 0.7-0.2 2.9-0.1 5.1 0.1 3.8 0.1 3.8 0.7 4.2 0.5 0.2 2 0.2 5.6 0.1 3.2-0.1 5.1-0.3 5.4-0.5 0.4-0.3 0.3-0.5-0.9-1.7-0.7-0.8-3.2-2.9-5.5-4.9-2.3-1.9-4.4-3.4-4.6-3.4-0.3 0-0.5 0.3-0.6 1.1zm-3.6 14.7c-0.7 0.3-0.7 0.3-0.6 3.6 0 1.8 0.1 3.5 0.1 3.8l0.2 0.7c15.8 0 17.9-0.1 18.1-0.4 0.3-0.2 0.4-1.4 0.3-3.9l-0.1-3.7c-2.7-0.2-6.6-0.3-10.4-0.3-3.8 0-7.3 0.1-7.6 0.2zm-8.6 12.9l-1.2 0.1c-0.1 2.2 0 2.8 0.2 3 0.2 0.3 4.3 0.4 20.5 0.4 17.7 0 20.2-0.1 20.3-0.4 0.1-0.3 0.1-1 0.1-1.6 0-0.8-0.1-1.3-0.3-1.4-0.2 0-8.9-0.1-19.4-0.2-10.5 0-19.6 0-20.2 0.1zm9.3-113.4l-0.1 13.5-4.1 0.1c-2.3 0-4.5 0-4.8-0.1-0.6-0.1-0.6-0.1-0.6-6.2 0-5.3 0-6.2 0.4-6.7 0.4-0.6 0.6-0.6 9.2-0.6zm17.6 0.1v13.4h-9.4l-0.1-6.4c-0.1-5 0-6.5 0.2-6.7 0.3-0.3 1.3-0.4 9.3-0.3zm-26.9 21.9l9.2 0.1 0.2 12.7h-9.4zm26.9 0.2l0.1 12.7h-9.6l-0.1-6.2c0-3.5 0.1-6.4 0.2-6.5 0.1-0.1 2.3-0.1 9.4 0zm-26.9 21.8h9.3v6.1c0 4.5 0 6.2-0.3 6.5-0.2 0.2-1.5 0.3-9 0.3zm27 0v12.9h-4.7c-3.9 0-4.7-0.1-4.8-0.4-0.1-0.3-0.1-3-0.1-6.1 0-3.1 0.1-5.8 0.1-6 0.2-0.3 1-0.4 9.5-0.4z"/>
	<path fill-rule="evenodd" class="s0" d="m518.11 1.31c-1 0.8-2.7 3.4-3.6 5.8-1.6 3.8-1.6 4.5 0.1 5.5 1.1 0.7 3.1 0.8 4.6 0.5 1.3-0.5 4.7-2.9 7.5-5.6 2.6-2.7 4.8-5.3 4.8-6 0-0.8-2.5-1.4-5.8-1.5-3.1-0.1-6.6 0.5-7.6 1.3zm661.6 14.9c-2.5 1.3-5.9 3.3-7.5 4.2-1.5 1.1-4.2 4.3-5.8 7.2-1.8 3.2-3 8.3-3.3 13.6-0.5 5.8 0 10.6 1.4 15 1.2 3.6 3.8 8.1 5.7 10 2 1.8 5.4 4.5 7.5 5.8 3.1 1.9 6.3 2.4 15.7 2.4 8.3 0 12.9-0.6 15.7-2.1 2.2-1.1 5.2-3.5 6.8-5.2 1.5-1.7 3.7-5.2 4.8-7.9 1.2-2.8 2.2-9.2 2.3-14.4 0.1-7-0.5-11-2.4-15.3-1.5-3.3-4.1-7.1-5.8-8.7-1.7-1.7-6.1-3.9-9.7-5-3.5-1-9.7-1.9-13.6-1.9-4.3 0-9.1 1-11.8 2.3zm-935.7-0.2c-0.6 0.4-1.1 13.7-1 29.3l0.3 28.5c17.7 0 18.2-0.1 18.3-2.9 0-1.7 0.3-6.7 0.4-11.4l0.2-8.5h16.9l1.4 22.2c16.9 0.6 17.6 0.4 18.2-2.3 0.5-1.7 0.6-14.7 0.4-29l-0.4-26.1h-18.2l-1.4 19.6h-16.9c-0.6-18.1-0.9-19-3.6-19.6-1.6-0.3-5.3-0.7-8.2-0.7-3 0-5.9 0.4-6.4 0.9zm65 0.4c-0.6 0.8-0.9 13.2-0.6 27.8 0.2 14.5 0.7 27.1 1.2 28.1 0.6 1.2 6.7 1.4 25 1.2l24.1-0.3 0.7-13.7h-31.3v-9.1l28-0.7v-13.1c-28-0.6-28-0.6-28-3.8v-3.3l29.3-0.6v-13.1c-38.9-0.6-47.8-0.2-48.4 0.6zm59.5-0.4c-1.5 0.6-1.8 5.2-1.5 27.6 0.1 14.9 0.7 27.7 1.2 28.7 0.6 1 3.6 1.5 9.4 1.3l8.5-0.4c0.6-20.5 0.9-21.5 3.2-21.5 1.8 0 4 2.2 6.9 7 2.3 3.9 5.3 9 6.5 11.1 2.2 3.9 2.6 4 11.4 4 5.1 0 9.4-0.6 9.8-1.3 0.3-0.7-1.4-5.2-3.8-10-2.5-4.9-5.7-10.1-7.2-11.5l-2.7-2.5c8.6-7.3 9.6-9 10-14.4 0.6-4.7 0.2-7.6-1.3-10.5-1.2-2.1-3.5-4.7-5.1-5.7-2.1-1.3-8.5-2.1-23.2-2.3-11.1-0.2-21-0.1-22.1 0.4zm61.9 0c-0.6 0.4-1 13.7-0.9 29.3l0.3 28.5h16.9c0-22.2 0.5-28.6 1-28.7 0.6 0 2.1 1.9 3.6 4.3 1.3 2.3 5.8 8.8 9.8 14.4l7.2 10.1 16.9-0.7v-57.4c-13.1-0.6-15.9-0.2-16.6 0.9-0.5 1-0.9 7-0.6 13.4 0.1 6.9-0.3 11.7-1 12-0.7 0.2-4.2-4.2-7.9-9.7-3.6-5.4-7.8-11.6-9.4-13.5-2.6-3.3-3.9-3.8-10.6-3.8-4.1 0-8.1 0.4-8.7 0.9zm80.4 1.4c-0.7 1.3-5.2 12.8-10 25.7-4.7 13-9 25.2-9.5 27.2l-0.9 3.8c17.5-0.9 18.3-1.1 20.2-4.9 2.1-3.6 2.8-3.8 10.9-4.2l8.7-0.2 4 9c14.2 0 18.2-0.6 18.2-1.3 0-0.7-3-9.7-6.8-19.8-3.6-10.3-7-19.2-7.6-19.9-0.5-0.8-1.7-3.7-2.5-6.6-1-2.9-2.4-6.5-3.5-8.1-1.6-2.6-2.9-3-10.9-3-7.4 0-9.3 0.5-10.3 2.3zm47.6-0.6c-0.3 0.9-0.4 14-0.3 29l0.1 27.4h17c1.2-26.1 1.5-26.9 3.4-24.6 1.1 1.3 4.6 6.3 7.7 10.9 3.1 4.7 6.8 9.9 8.4 11.4 2.3 2.6 4 3 10.9 2.9 5.5 0 8.2-0.5 8.2-1.5 0.1-1 0.1-13.6 0-28.2 0-14.5-0.2-26.9-0.2-27.7 0-0.7-3.3-1.2-8-0.9l-8.3 0.3c-0.4 21.8-1 28.1-1.5 27.9-0.6 0-5.1-6.2-10.2-14l-9.2-13.9c-15.1-0.7-17.6-0.3-18 1zm66.5-1c-0.7 0.6-1.1 12.8-1 27.6 0.1 14.6 0.5 27.4 0.9 28.5 0.4 1.6 3.6 1.9 16.6 1.9 8.7 0 18.2-0.6 20.8-1.3 2.8-0.7 6.9-2.9 9.2-5 2.3-2 4.9-6 5.8-8.8 1-2.8 1.7-9.2 1.7-14.2 0-7.2-0.6-10.5-3.2-15.6-2.3-4.7-4.8-7.5-8.8-9.8-5.1-2.9-7.3-3.3-23.2-3.7-9.8-0.3-18.2 0-18.8 0.4zm62.6 0.2c-0.8 0.4-1.1 13.7-1 29.3l0.2 28.5h49.6v-14.3l-30.7-0.7-0.6-8.4h28.7l-0.7-13.8c-27.7-0.6-28-0.7-27.7-3.5 0.3-2.9 1-3 15.4-3.6l15-0.6v-13.1c-36.5-0.6-47.6-0.3-48.2 0.2zm56 0c-0.6 0.4-1.1 3.5-1 6.5 0.3 3.7 1 5.9 2.2 6.4 1.1 0.3 6.7 0.1 12.5-0.4 7.9-0.7 10.4-0.6 10.4 0.6 0 1-6.2 8.2-13.7 16.3l-13.6 14.8v13.6h54.7v-14.3c-22.3 0-28.5-0.5-28.4-1.1 0.2-0.6 6.6-7.9 14.5-16 14-14.8 14-14.8 13.6-20.8l-0.3-5.8c-38.6-0.6-50.3-0.3-50.9 0.2zm80.2 0.4c0 0.8 5 8.9 11.1 17.9l11.2 16.7-0.2 22.8 17.7-0.6c1.1-18.2 2.1-25.1 3.2-27.2 1.1-1.9 2.4-3.6 2.9-3.5 0.6 0 1-0.6 1-1.3 0-0.7 3.4-6.3 7.5-12.4 5.1-7.4 7.1-11.5 6.3-12.4-0.8-0.7-5.5-1.2-10.3-0.9l-8.9 0.3c-7.4 13.7-9.8 17.7-10.2 17.7-0.3 0-1.6-2-2.6-4.3-1.1-2.2-3.7-6.5-5.6-9.1l-3.6-5c-15.4 0-19.5 0.6-19.5 1.3zm93.2-0.4c-0.5 0.4-1 12.8-0.9 27.4 0.1 14.6 0.5 27.4 0.9 28.5 0.4 1.4 2.6 1.9 7.8 1.9 6.4 0 7.3-0.3 8-2.9 0.5-1.7 0.6-8.9 0.4-16.2-0.3-7.3 0-13.7 0.4-14.3 0.5-0.6 1.4 0.7 1.7 2.7 0.5 2.2 2.3 9.7 4 16.7 1.7 7 3.2 13.1 3.2 13.4 0 0.4 2.9 0.6 6.5 0.6 5.9 0 6.6-0.3 8.4-3.8 1.1-2.2 2-4.8 2-5.6 0-1 0.9-4.8 2-8.8 1.2-4 2.8-9.6 3.6-12.5 1.5-4.7 1.6-3.6 2.2 12.5l0.7 17.6 15 0.6-0.7-58c-18.5-0.6-22.7-0.1-23.8 1-1 0.9-2.9 6.9-4.2 13.3-1.5 6.5-3.2 12.7-3.9 13.8-0.8 1.5-1.2 1.4-1.8-0.8-0.4-1.4-1-4.5-1.5-7.1-0.4-2.5-1.4-7.5-2.2-11.1-0.9-3.5-2.1-7.2-2.9-8.2-1-1.1-5-1.7-12.6-1.6-6.2 0-11.7 0.4-12.3 0.9zm90.7 2.1c-0.6 1.6-5.3 14.4-10.3 28.3-5.1 14-8.9 26-8.6 26.5 0.4 0.4 4.4 0.9 9.1 0.9 8.5 0 8.5 0 10.4-4.6 1.9-4.4 2-4.4 10.5-4.4 8.2 0 8.5 0 11.4 4.6 2.9 4.5 3 4.7 10.7 4.2 6.7-0.4 7.9-0.9 8.3-3 0.2-1.5-2.2-9.3-5.4-17.7-3.3-8.2-7.4-19.1-9.2-24-1.8-5.1-3.6-10.2-4-11.5-0.7-1.9-2.4-2.3-11.2-2.3-9.7 0-10.6 0.3-11.7 3zm39.9-1.3c-0.4 0.9-0.9 3.3-1.4 5.2-0.3 1.9-0.1 4.7 0.6 6.2 1 2 2.8 2.6 8.9 2.9l7.4 0.3 1.2 41.8h18.4l0.6-42.4h16.9v-15.7c-45.8 0-52.3 0.5-52.6 1.7zm59.9-0.1c-0.4 1-0.3 14 0.2 29.1l1.1 27.4h48.2v-13l-30.7-0.7v-9.1c19.7-0.1 26.2-0.5 27.2-1.1 1.1-0.6 1.5-3 1.2-6.8l-0.4-5.9c-28-0.6-28-0.6-28-3.8v-3.3h30.1l-0.7-13.7c-42.2-0.7-47.7-0.3-48.2 0.9zm-787.8 94.2c-2.9 1.7-6.8 5.3-8.7 8.1-1.9 2.8-4.2 7.4-5.1 10.3-0.9 3.2-1.3 8.4-0.8 13.6 0.5 5.1 1.9 10.9 3.7 14.3 1.7 3.1 5.1 7.4 7.6 9.5 3.8 3.2 6.2 3.9 13.7 4.6 7.6 0.6 10.1 0.4 15-2 3.2-1.5 7.2-4.5 8.8-6.7 1.6-2.2 3.3-5.8 3.6-8 0.6-3.5 0.3-3.9-4.2-5.1-2.8-0.8-5.2-1.4-5.6-1.4-0.3 0-1.5 1.8-2.6 4-1.1 2.3-3.3 5-4.9 5.9-1.6 1.1-4.8 2-7.2 2-2.3 0-5.6-1-7.1-2-1.6-1.1-3.9-3.7-4.9-5.9-1.2-2.4-2-7.5-1.9-12.7 0-6.4 0.7-10 2.5-13 1.5-2.4 3.8-4.9 5.2-5.6 1.5-0.7 4.9-1.3 7.5-1.3 4 0.1 5.7 1 9.2 4.9l4.2 4.9c10.1-3.8 10.5-4.3 9.8-7.2-0.5-1.8-2.4-4.9-4.3-7-2-2-5.6-4.5-8.1-5.5-2.6-1.1-8.1-1.9-12.3-1.8-6 0-9.2 0.7-13.1 3.1zm62-0.1c-3.5 1.7-7.5 5.1-9.8 8.4-3.7 5.4-4 6.6-4.4 19-0.2 11.7 0 13.9 2.8 19.1 1.7 3.3 5.3 7.5 8.1 9.5 4 2.8 7.1 3.9 13.7 4.4 4.9 0.5 10.8 0.1 14.3-0.9 3.8-0.9 7.8-3.5 11.3-7 3.4-3.3 6-7.4 7-11.2 1-3.3 1.6-9.4 1.6-13.8 0-5.4-1-9.6-3.2-14.1-1.7-3.5-4.9-8.1-7.2-10.1-2.3-2.1-6.4-4.3-9.2-5-2.7-0.7-8.1-1.3-12-1.3-4.7 0.1-9.3 1.1-13 3zm122.5 0c-2.6 1.6-5.3 4.3-6.2 6.2-1 1.6-1.6 5.9-1.3 9.3 0.2 4.7 1.2 7 4.2 10 2.7 2.8 6.9 4.9 13.1 6.7 5 1.5 10.6 3.4 12.4 4.3 1.9 0.9 3.4 3 3.6 4.8 0.3 1.8-0.6 4.2-1.9 5.6-1.6 1.5-4.4 2.3-8.6 2.3-4.8 0-6.9-0.8-9.4-3.3-1.8-1.8-3.3-4.2-3.3-5.3 0-1.5-1.4-1.8-6.1-1.6l-6.3 0.4c0.7 7 1.9 10.5 3.3 12.3 1.2 1.8 3.9 4.5 6 5.8 2.5 1.7 6.9 2.7 12.9 3.1 7.3 0.5 10.4 0 15.7-2.1 4.3-2 7.3-4.3 9-7 1.5-2.8 2.5-6.7 2.4-10.9 0-3.5-0.7-7.6-1.6-9.1-0.8-1.4-3.6-4-6-5.5-2.4-1.6-8.5-4-13.3-5.2-4.9-1.2-9.9-3.3-11.4-4.5-2.1-1.8-2.3-2.7-1.2-4.6 0.9-1.3 3.4-2.8 5.6-3.4 2.8-0.6 5.4-0.3 7.9 1 2.2 1.1 4.6 3.1 5.4 4.6q1.2 2.6 5.2 2.6c2.1 0 4.7-0.3 5.8-0.7 1-0.3 1.9-1.7 1.9-2.9 0-1.2-1.3-4.5-2.9-7.2-1.9-3.2-4.6-5.6-7.9-6.8-2.6-1.1-8.8-1.9-13.7-1.9-7 0-9.8 0.6-13.3 3zm235.5 1.2c-4.1 2.8-7.1 6.2-8.9 10.1-1.8 3.7-3 9.4-3.4 15q-0.5 9.1 1.6 15.6c1.2 4 4.1 8.6 7 11.5 2.8 2.8 7 5.5 9.5 6.1 2.6 0.8 7.2 1.4 10.4 1.4 3.3-0.1 8.2-1.1 11.1-2.4 2.9-1.4 6.8-4.4 8.6-6.8 2-2.5 3.9-5.8 4.4-7.5 0.6-2.4 0-3.3-3.9-4.8-2.4-1.1-5.4-2.1-6.5-2.1-1 0-2.3 1.6-2.9 3.5-0.5 2-2.4 4.6-4.2 5.9-1.9 1.4-5.4 2.5-7.9 2.5-2.9 0-5.7-1.1-7.7-2.9-1.7-1.7-3.9-5-4.9-7.3-0.9-2.3-1.8-6.8-1.8-9.8 0-3 0.9-7.7 2-10.4 1.2-2.7 3.2-6.1 4.7-7.5 1.5-1.6 4.3-2.6 7.5-2.6 2.9-0.1 6.2 1 8.4 2.5 2 1.5 3.5 3.5 3.5 4.6 0 1.1 0.9 2.1 1.7 2.1 0.9 0 3.6-0.8 6.2-1.6 2.5-0.7 5.2-1.9 5.9-2.5 0.8-0.6 0.1-2.8-1.9-5.8-1.9-2.7-5.7-6.3-8.6-8-4-2.3-7.1-3-14.4-3-8.2 0-9.8 0.3-15.5 4.2zm64.4-1.2c-3.1 1.7-7.3 5.3-9.4 8.2-1.9 2.8-4 7.7-4.5 10.9-0.6 3.2-0.7 10.1-0.3 15.2 0.5 7.7 1.3 10.4 4.6 15 2.3 3.4 6.3 6.9 9.8 8.7q5.8 2.9 12.6 2.9c3.8 0 9.1-0.9 11.8-2 2.6-1 6.5-3.9 8.4-6.5 2.1-2.5 3.9-6.4 4.2-8.6 0.6-3.6 0.4-3.9-4.5-5.1-2.8-0.8-5.8-1-6.6-0.7-0.6 0.4-1.2 1.6-1.2 2.6 0 1.1-1.7 3.5-3.6 5.3-2.4 2.3-5.1 3.3-8.1 3.3-2.5 0-6-1.1-7.8-2.3-1.7-1.4-3.9-4.3-4.9-6.6-0.9-2.4-1.7-7.4-1.7-11.4 0-3.9 0.9-9.2 2-11.8 1-2.5 3.5-5.5 5.4-6.6 2.4-1.4 5.1-1.9 8.8-1.4 3.4 0.4 6.2 1.9 7.6 3.7 1.4 1.7 2.6 3.5 2.7 4.1 0.1 0.6 2.3 0.7 4.8 0.2 2.6-0.3 5.5-1.3 6.5-1.9 1.7-0.8 1.7-1.7 0.4-5.1-1-2.3-2.4-4.8-3.3-5.8-0.9-0.9-3.9-3-6.8-4.5-3.8-2.1-7.5-2.8-13.1-2.8-5.8 0-9.5 0.8-13.8 3zm85-0.1c-3.2 1.5-7 4.4-8.6 6.1-1.5 1.8-3.8 6.8-5.1 11.1-1.4 4.8-2.2 10.6-1.8 14.4 0.2 3.9 2.1 9.8 4.3 14.4 3.2 6.2 5.2 8.5 9.8 10.9 3.3 1.8 9 3.5 13.1 3.7 3.8 0.4 9.6 0 12.7-0.8 3-0.8 7.3-3.2 9.7-5.1 2.3-2.1 5.6-6.5 7.2-9.8 2.3-4.8 2.9-8.3 2.9-16.2 0-8.6-0.6-11.1-3.6-16.6-2-3.7-6-8.1-9.2-10.4-4.9-3.4-7-4-15.6-4.4-8.5-0.3-11 0.1-15.8 2.7zm181.4-1c-2.4 1.1-5.5 3.5-6.9 5.4-1.7 2.5-2.5 5.8-2.5 9.9 0 5.1 0.8 7.1 4.3 10.9 3.4 3.8 6.4 5.3 15.3 8 6.1 1.8 11.8 4 12.8 4.7 0.9 0.9 1.7 2.7 1.7 4.1 0 1.5-1.1 3.6-2.3 4.8-1.6 1.5-4.5 2.3-8.3 2.5-4.1 0-6.7-0.8-8.8-2.7-1.5-1.4-3.2-3.7-3.6-5.2-0.5-2.2-1.7-2.6-6.5-2.6-4.4 0-6.1 0.6-6.7 2.2-0.6 1.4 0.4 4.6 2.2 8 1.8 3.2 5 7 7.1 8.5 2.8 1.9 6.7 2.9 13.7 3.2 8.1 0.5 10.9 0.2 15.7-2.1 3.9-1.7 6.9-4.4 8.7-7.6 1.6-2.8 2.9-6.8 3-9 0-2.2-0.7-5.9-1.6-8.3-1-2.7-3.5-5.7-6.2-7.3-2.6-1.5-8.7-3.8-13.7-5.2-5.1-1.3-10.1-3.3-11.5-4.4-1.3-1.2-2.3-3.2-2.3-4.4 0-1.4 1.7-2.8 4.4-3.6 2.3-0.7 5.3-1.3 6.7-1.3 1.5 0.1 4.6 2.1 6.9 4.6 3.8 4.1 4.9 4.4 9.5 3.8q5.2-0.6 5.2-2.5c0-1.1-1.1-4.2-2.5-6.9-1.7-3.5-4-5.6-7.7-7.1-3.4-1.5-8.6-2.3-13.6-2.2-4.5 0-10.1 0.8-12.5 1.8zm-634.6 1c-0.3 0.9-0.5 14.6-0.3 30.3l0.2 28.7h11.7c0.4-26.3 0.5-34.5 0.5-35.2 0-0.8 1.1 0.1 2.4 1.9 1.3 1.8 5 7.7 8.2 13.1 3.2 5.4 7.4 12.3 9.3 15.3 3.5 5.3 4 5.5 10.2 5.5h6.5v-61.2h-11.7c0 29.1-0.5 36.7-1.2 37.1-0.7 0.4-1.5 0-1.5-1 0-0.8-4.9-9.2-10.7-18.6l-10.8-16.9c-10.4-0.7-12.4-0.2-12.8 1zm114.5 0c-0.3 0.8-0.4 3.1-0.3 4.9 0.3 3 1.1 3.3 8.9 3.9l8.5 0.6 0.6 50.2 12.4-0.6 1.4-49.6 17.6-0.6-0.7-9.8c-42.1-0.6-47.8-0.4-48.4 1zm55.6 29v30.6l12.3-0.6 0.6-24.1c8.1 0 9.9 0.8 12.1 3.6 1.7 2.1 5.7 7.6 8.8 12.5l6 8.6c12 0 13.6-0.4 13.6-1.9 0-1.1-1.8-5.1-4.2-8.8-2.3-3.7-6.1-8.8-8.5-11.1-2.3-2.3-4.2-4.5-4.2-4.8 0-0.4 0.8-0.8 1.9-0.8 1.1 0 3.8-1.5 6-3.5 2.1-2 4.5-5.4 5.3-7.5 0.8-2.6 0.7-6-0.2-9.8-0.7-3.2-2.6-7-4.2-8.3-1.7-1.3-4.3-2.9-5.9-3.6-1.6-0.6-11.1-1.1-21.1-1.1h-18.3zm61.5-6.9c0.4 19.3 0.9 24.7 2.7 28.4 1.2 2.5 4.2 5.7 6.5 7 2.6 1.7 7.6 2.8 13.4 3.2 7.4 0.4 10.3 0.1 15.3-2.2 4.6-2.1 6.8-4.1 8.9-8 2.3-4.7 2.5-7.5 2.3-28.4l-0.4-23.2-12.5-0.6c0 44 0 44.4-3.1 47.6-2.3 2.3-4.6 3.3-7.8 3.3-2.6 0-5.8-0.6-7.3-1.4-1.4-0.7-3.1-3.1-3.9-5.5-0.7-2.3-1.3-13.2-1.3-24v-20h-13.2zm184.6-20.3c-0.3 2.1-0.7 14.9-0.8 28.4-0.1 13.7 0.1 25.9 0.5 27.1 0.5 1.8 2 2.3 6.5 2.3 5.1 0 6-0.4 6.6-2.9 0.4-1.6 0.5-15.3 0.3-30.4l-0.4-27.4c-11.7-0.7-12.1-0.6-12.7 2.9zm91.6 27.2v30.6l11.1-0.6c0.5-26.9 1.1-34.6 1.7-34.6 0.5-0.1 4.7 5.9 9.3 13.3 4.5 7.4 9.6 15.3 11 17.6 2.7 4.1 3.3 4.4 9.3 4l6.5-0.3v-60.1h-11.7l-1.3 37.6c-13.9-23.1-19.3-31.7-21-34-2.7-3.7-3.9-4.2-9-4.2h-5.9zm60.8-29.8c-0.6 0.5-1.1 13.5-1 29.1 0.1 15.5 0.7 28.9 1.2 29.7 0.7 1.2 6.7 1.6 23.8 1.3l22.8-0.3 0.8-9.8c-23.4 0-30.5-0.1-31.1-0.4-0.5-0.1-1.7-0.7-2.6-1.2-0.9-0.6-1.6-3.7-1.6-7.5 0-4.7 0.6-6.7 1.9-7.2 1.1-0.4 8.1-0.6 15.7-0.6h13.7v-10.5l-30.7-0.6v-11.8l32.6-1.3v-9c-34.4-0.6-44.9-0.4-45.5 0.1zm-617.7-77.1c0 2.4 0.7 4.8 1.7 5.2 0.8 0.4 4 0.2 6.9-0.4 4.1-0.8 5.2-1.7 5.5-4.3 0.3-1.7-0.3-3.6-1.3-4.1-1-0.5-4.2-1-7.3-1-5.4 0-5.5 0-5.5 4.6zm800.2-2.9c-1.4 1-3.4 4.4-4.3 7.5-1.3 4.3-1.4 7.4-0.4 11.6 0.7 3.5 2.6 7.1 4.6 8.8 1.9 1.7 4.6 3 6 3 1.4 0 3.8-0.6 5.2-1.3 1.5-0.7 3.5-3.1 4.5-5.2 1.1-2.2 2-7.1 2-11.1 0-6.3-0.6-7.7-3.9-11.1-2.5-2.4-5.2-3.9-7.5-3.9-2 0-4.7 0.7-6.2 1.7zm-542.7 1.3c-0.2 1-0.3 7.5-0.2 14.7l0.4 12.9c8.9 0.7 11.1 0.2 12.7-1.5 1.8-1.8 2.4-4.7 2.4-12.2 0.1-8.9-0.2-10-3.3-12.7-1.9-1.6-5.2-2.9-7.4-2.9-2.1 0-4.2 0.8-4.6 1.7zm-125.5 9.1c-0.7 3-1.7 6.5-2.1 7.7-0.6 2 0.1 2.3 4.4 2.3 2.9 0 5.3-0.3 5.2-0.9 0-0.5-0.7-4-1.7-7.9-0.9-3.7-2.4-6.8-3-6.8-0.7 0-1.9 2.5-2.8 5.6zm498.2 0c-0.9 3-1.9 6.5-2.3 7.7-0.4 2 0.4 2.3 3.8 2.3 2.4 0 4.7-0.3 5.2-0.9 0.3-0.5-0.1-3.7-1.4-6.8-1-3.3-2.2-6.4-2.7-6.9-0.5-0.6-1.6 1.5-2.6 4.6zm-628.4 80.7c-1.6 0.8-4 3.9-5.6 6.5-1.6 3.3-2.7 7.4-2.7 11.5 0 3.6 0.8 8.5 1.8 10.9 0.9 2.3 3.4 5.5 5.5 7.1 2.5 1.9 5.5 3 8.7 3 2.7-0.1 6.4-1.1 8.4-2.4 1.8-1.2 4.1-3.7 5-5.6 0.9-1.7 1.7-5.5 2-8.4 0.1-2.9 0.2-7.4 0.1-10-0.1-3.4-1.3-6.3-3.7-9-2.9-3.4-4.9-4.2-10.2-4.6-3.6-0.2-7.7 0.1-9.3 1zm230.6 5.7c0.3 4 0.9 7.1 1.5 7.1 0.5 0 4.7 0 9.3 0 5.7 0 9-0.6 10.4-1.9 1.2-1.1 2-3.4 2-5.2 0-2-1.1-4.1-2.9-5.2-1.9-1.4-6-2.1-11.8-2.1h-8.8zm276.7-5.8c-1.4 0.7-4 3.8-5.5 6.8-1.6 3.4-2.8 8.1-2.8 11.8 0 3.4 0.8 8.4 1.9 11 1.1 2.8 3.6 5.9 5.9 7.3 2.1 1.2 6.3 2.3 9.2 2.3 4.1 0 6.2-0.9 9-3.7 2-1.9 4.3-5.9 5-8.8 0.9-2.9 1.6-6.4 1.6-7.8 0-1.5-1-5.5-2.3-9-1.2-3.6-3.7-7.6-5.5-8.9-2.1-1.5-5.2-2.3-8.5-2.3-2.9 0.1-6.4 0.7-8 1.3z"/>
</svg>